<svg width="73" height="31" viewBox="0 0 73 31" fill="none" xmlns="http://www.w3.org/2000/svg">
<path d="M36.48 12.8497C38.1876 12.8497 39.8252 13.528 41.0327 14.7355C42.2401 15.9429 42.9184 17.5805 42.9184 19.2881C42.9184 20.9957 42.2401 22.6333 41.0327 23.8407C39.8252 25.0482 38.1876 25.7265 36.48 25.7265C34.7724 25.7265 33.1348 25.0482 31.9273 23.8407C30.7199 22.6333 30.0416 20.9957 30.0416 19.2881C30.0416 17.5805 30.7199 15.9429 31.9273 14.7355C33.1348 13.528 34.7724 12.8497 36.48 12.8497ZM62.2336 12.8497C63.9412 12.8497 65.5788 13.528 66.7862 14.7355C67.9937 15.9429 68.672 17.5805 68.672 19.2881C68.672 20.9957 67.9937 22.6333 66.7862 23.8407C65.5788 25.0482 63.9412 25.7265 62.2336 25.7265C60.526 25.7265 58.8884 25.0482 57.6809 23.8407C56.4735 22.6333 55.7952 20.9957 55.7952 19.2881C55.7952 17.5805 56.4735 15.9429 57.6809 14.7355C58.8884 13.528 60.526 12.8497 62.2336 12.8497ZM10.7264 12.8497C12.434 12.8497 14.0716 13.528 15.2791 14.7355C16.4865 15.9429 17.1648 17.5805 17.1648 19.2881C17.1648 20.9957 16.4865 22.6333 15.2791 23.8407C14.0716 25.0482 12.434 25.7265 10.7264 25.7265C9.01884 25.7265 7.38118 25.0482 6.17375 23.8407C4.96632 22.6333 4.28797 20.9957 4.28797 19.2881C4.28797 17.5805 4.96632 15.9429 6.17375 14.7355C7.38118 13.528 9.01884 12.8497 10.7264 12.8497ZM42.9184 27.8641C42.9602 28.4041 43.2042 28.9085 43.6016 29.2764C43.9991 29.6443 44.5208 29.8487 45.0624 29.8487C45.604 29.8487 46.1257 29.6443 46.5232 29.2764C46.9207 28.9085 47.1646 28.4041 47.2064 27.8641V19.2881C47.2086 16.868 46.3933 14.5182 44.8927 12.6196C43.3922 10.7209 41.2943 9.38474 38.9392 8.82768C36.5842 8.27061 34.1101 8.52532 31.9179 9.5505C29.7257 10.5757 27.9441 12.3112 26.8618 14.4758C25.7795 16.6403 25.4601 19.107 25.9552 21.4758C26.4504 23.8446 27.7311 25.9768 29.5898 27.5266C31.4484 29.0764 33.7761 29.953 36.1954 30.0142C38.6147 30.0755 40.9837 29.3178 42.9184 27.8641ZM51.4944 19.2881C51.4944 20.6984 51.7722 22.0949 52.3119 23.3978C52.8516 24.7007 53.6426 25.8846 54.6398 26.8818C55.6371 27.8791 56.821 28.6701 58.1239 29.2098C59.4268 29.7495 60.8233 30.0273 62.2336 30.0273C63.6439 30.0273 65.0403 29.7495 66.3433 29.2098C67.6462 28.6701 68.8301 27.8791 69.8273 26.8818C70.8246 25.8846 71.6156 24.7007 72.1553 23.3978C72.695 22.0949 72.9728 20.6984 72.9728 19.2881C72.8767 16.5057 71.7038 13.8694 69.7016 11.9351C67.6993 10.0007 65.024 8.91959 62.24 8.91959C59.456 8.91959 56.7807 10.0007 54.7784 11.9351C52.7761 13.8694 51.6033 16.5057 51.5072 19.2881H51.4944ZM10.7264 30.0145C12.4302 30.0185 14.1105 29.6171 15.6285 28.8434C17.1465 28.0698 18.4587 26.946 19.4566 25.565C20.4544 24.184 21.1094 22.5854 21.3673 20.9012C21.6253 19.217 21.4788 17.4957 20.94 15.8793C20.4012 14.2629 19.4856 12.7979 18.2687 11.6054C17.0519 10.4128 15.5687 9.5269 13.9418 9.02081C12.3149 8.51472 10.591 8.40299 8.91234 8.69485C7.23372 8.9867 5.64858 9.67377 4.28797 10.6993V2.12329C4.24621 1.58328 4.00224 1.07891 3.60477 0.710984C3.20729 0.343057 2.68561 0.138672 2.14398 0.138672C1.60236 0.138672 1.08068 0.343057 0.683203 0.710984C0.285729 1.07891 0.041756 1.58328 0 2.12329V19.7105C0.112341 22.4804 1.29143 25.0995 3.29062 27.02C5.28982 28.9405 7.95423 30.0135 10.7264 30.0145Z" fill="white"/>
</svg>
